HIERARCHY
ROOT Hips
{
	OFFSET 0.000000 0.000000 0.000000
	CHANNELS 6 Xposition Yposition Zposition Zrotation Yrotation Xrotation 
	JOINT LeftUpLeg_virtual
	{
		OFFSET 0.000000 0.000000 0.000000
		CHANNELS 3 Zrotation Yrotation Xrotation
		JOINT LeftUpLeg
		{
			OFFSET 8.479694 -4.795517 -0.379053
			CHANNELS 3 Zrotation Yrotation Xrotation
			JOINT LeftLeg
			{
				OFFSET 0.485052 -32.551468 0.112863
				CHANNELS 3 Zrotation Yrotation Xrotation
				JOINT LeftFoot
				{
					OFFSET 0.438033 -32.635670 -3.012641
					CHANNELS 3 Zrotation Yrotation Xrotation
					JOINT LeftToeBase
					{
						OFFSET 0.970169 -13.225353 11.864223
						CHANNELS 3 Zrotation Yrotation Xrotation
						End Site
						{
							OFFSET 0.000000 0.000000 0.000000
						}
					}
				}
			}
		}
	}
	JOINT RightUpLeg_virtual
	{
		OFFSET 0.000000 0.000000 0.000000
		CHANNELS 3 Zrotation Yrotation Xrotation
		JOINT RightUpLeg
		{
			OFFSET -8.479694 -4.795517 -0.379053
			CHANNELS 3 Zrotation Yrotation Xrotation
			JOINT RightLeg
			{
				OFFSET -0.484100 -32.551483 0.112903
				CHANNELS 3 Zrotation Yrotation Xrotation
				JOINT RightFoot
				{
					OFFSET -0.438985 -32.635651 -3.012681
					CHANNELS 3 Zrotation Yrotation Xrotation
					JOINT RightToeBase
					{
						OFFSET -0.970169 -13.225354 11.864223
						CHANNELS 3 Zrotation Yrotation Xrotation
						End Site
						{
							OFFSET 0.000000 0.000000 0.000000
						}
					}
				}
			}
		}
	}
	JOINT Spine_virtual
	{
		OFFSET 0.000000 0.000000 0.000000
		CHANNELS 3 Zrotation Yrotation Xrotation
		JOINT Spine
		{
			OFFSET 0.000000 7.722015 1.166203
			CHANNELS 3 Zrotation Yrotation Xrotation
			JOINT Spine1
			{
				OFFSET 0.000000 12.024086 0.248766
				CHANNELS 3 Zrotation Yrotation Xrotation
				JOINT Spine2
				{
					OFFSET -0.000000 11.503036 -0.491240
					CHANNELS 3 Zrotation Yrotation Xrotation
					JOINT Neck_virtual
					{
						OFFSET 0.000000 0.000000 0.000000
						CHANNELS 3 Zrotation Yrotation Xrotation
						JOINT Neck
						{
							OFFSET 0.000000 18.430687 -3.123054
							CHANNELS 3 Zrotation Yrotation Xrotation
							JOINT Head
							{
								OFFSET -0.000000 9.051071 1.034021
								CHANNELS 3 Zrotation Yrotation Xrotation
								End Site
								{
									OFFSET 0.000000 0.000000 0.000000
								}
							}
						}
					}
					JOINT LeftShoulder_virtual
					{
						OFFSET 0.000000 0.000000 0.000000
						CHANNELS 3 Zrotation Yrotation Xrotation
						JOINT LeftShoulder
						{
							OFFSET 6.197824 13.665230 -4.064723
							CHANNELS 3 Zrotation Yrotation Xrotation
							JOINT LeftArm
							{
								OFFSET 7.778132 -0.187073 -1.709282
								CHANNELS 3 Zrotation Yrotation Xrotation
								JOINT LeftForeArm
								{
									OFFSET 21.954697 0.000000 -2.041093
									CHANNELS 3 Zrotation Yrotation Xrotation
									JOINT LeftHand
									{
										OFFSET 22.992908 0.000000 -0.870901
										CHANNELS 3 Zrotation Yrotation Xrotation
										End Site
										{
											OFFSET 0.000000 0.000000 0.000000
										}
									}
								}
							}
						}
					}
					JOINT RightShoulder_virtual
					{
						OFFSET 0.000000 0.000000 0.000000
						CHANNELS 3 Zrotation Yrotation Xrotation
						JOINT RightShoulder
						{
							OFFSET -6.197824 13.665230 -4.064723
							CHANNELS 3 Zrotation Yrotation Xrotation
							JOINT RightArm
							{
								OFFSET -7.778132 -0.187073 -1.709282
								CHANNELS 3 Zrotation Yrotation Xrotation
								JOINT RightForeArm
								{
									OFFSET -21.954697 0.000000 -2.041093
									CHANNELS 3 Zrotation Yrotation Xrotation
									JOINT RightHand
									{
										OFFSET -22.992908 0.000000 -0.870901
										CHANNELS 3 Zrotation Yrotation Xrotation
										End Site
										{
											OFFSET 0.000000 0.000000 0.000000
										}
									}
								}
							}
						}
					}
				}
			}
		}
	}
}
MOTION
Frames: 14
Frame Time: 0.033333
5.648599 81.879211 -5.055317 -179.874097 -0.257176 179.822188 -4.741824 0.018717 12.734716 5.246961 -4.458505 -19.966711 1.663300 3.743065 25.846961 -0.532970 -6.200540 -9.398450 0.000000 0.000000 0.000000 -1.156566 -1.932979 13.211011 -0.569393 -11.321992 -12.272237 -1.693744 2.956240 20.366405 9.371977 9.244149 -8.001644 0.000000 0.000000 0.000000 1.573884 2.107364 1.105936 -2.690226 -0.338417 -4.810585 -0.064435 -2.953835 5.862404 -0.003664 0.023676 -0.047316 -0.189655 -1.825592 4.796828 3.217254 0.316900 -13.183818 0.000000 0.000000 0.000000 1.478631 -1.004644 2.173458 5.463515 5.682958 -0.406066 1.418874 -9.505059 -40.136070 -7.567343 -19.545090 -4.946624 0.000000 0.000000 0.000000 -3.037187 0.291692 1.437198 12.733818 -11.232997 -2.275645 13.638219 -4.153077 -46.760237 -1.430654 29.750091 -5.135001 0.000000 0.000000 0.000000 
5.625404 81.871788 -5.192181 -179.896459 -0.389847 179.703889 -4.743077 0.059205 12.727456 5.188708 -4.404080 -19.807323 1.796157 3.856718 25.729528 -0.343996 -5.976827 -9.520905 0.000000 0.000000 0.000000 -1.125895 -1.932684 13.109848 -0.814719 -11.188819 -12.196644 -1.476313 3.652890 20.256505 9.401742 9.097329 -8.271151 0.000000 0.000000 0.000000 1.487810 2.090513 1.132000 -2.678795 -0.327791 -4.782216 -0.092998 -2.952670 5.854147 -0.039390 0.016011 -0.075857 -0.214153 -1.820961 4.691191 3.225004 0.255158 -13.217241 0.000000 0.000000 0.000000 1.476539 -0.984181 2.128045 5.490234 5.678189 -0.404697 1.443927 -9.607237 -40.006853 -7.569656 -19.581150 -4.924530 0.000000 0.000000 0.000000 -3.054116 0.287834 1.390775 12.833593 -11.291078 -2.216864 13.600297 -4.171550 -46.933447 -1.496470 29.981549 -5.156691 0.000000 0.000000 0.000000 
5.611719 81.867943 -5.378947 -179.894028 -0.538908 179.683849 -4.772490 0.040333 12.762870 5.252506 -4.357808 -19.662544 1.737431 3.858830 25.679208 -0.356023 -6.045665 -9.632549 0.000000 0.000000 0.000000 -1.060737 -2.008565 13.133031 -0.917862 -11.275286 -12.045626 -1.382273 3.690850 20.325212 9.390915 9.039905 -8.352354 0.000000 0.000000 0.000000 1.395662 2.066494 1.127362 -2.650459 -0.306987 -4.830514 -0.063135 -2.942974 5.810120 0.008310 0.030279 -0.068286 -0.258945 -1.851241 4.615186 3.230886 0.224261 -13.148089 0.000000 0.000000 0.000000 1.458731 -1.028733 1.996665 5.411336 5.634380 -0.411268 1.485678 -9.622102 -39.851490 -7.580470 -19.582289 -4.838354 0.000000 0.000000 0.000000 -3.091475 0.246913 1.331060 12.782789 -11.331964 -2.138332 13.716744 -4.362371 -47.322624 -1.515418 30.126031 -5.235971 0.000000 0.000000 0.000000 
5.607243 81.866386 -5.575433 -179.937208 -0.825207 179.700692 -4.800721 -0.009277 12.846950 5.237036 -4.363889 -19.585497 1.698797 3.863916 25.650188 -0.365936 -6.130183 -9.637341 0.000000 0.000000 0.000000 -1.047710 -2.086539 13.189209 -1.010165 -11.311021 -11.936631 -1.365330 3.553870 20.359653 9.288838 9.111108 -8.381750 0.000000 0.000000 0.000000 1.292954 2.012195 1.151888 -2.653345 -0.326706 -4.936218 -0.068359 -2.945024 5.736007 -0.020439 0.002587 -0.044549 -0.182619 -1.798554 4.529497 3.272397 0.197568 -13.071801 0.000000 0.000000 0.000000 1.493587 -0.908456 1.949756 5.284985 5.680005 -0.386621 1.659365 -9.830997 -39.710331 -7.572666 -19.532022 -4.725538 0.000000 0.000000 0.000000 -3.010079 0.283003 1.304552 12.828941 -11.228783 -2.218071 13.795391 -4.679716 -47.774168 -1.318419 30.150548 -5.014689 0.000000 0.000000 0.000000 
5.621932 81.867180 -5.753948 -179.997027 -1.092367 179.720254 -4.959258 -0.077709 12.952076 5.479071 -4.433826 -19.604289 1.650316 3.890787 25.682334 -0.353268 -6.210017 -9.689207 0.000000 0.000000 0.000000 -1.119139 -2.148770 13.276427 -1.002082 -11.415328 -11.908113 -1.233764 3.757922 20.346507 9.187950 8.949521 -8.412326 0.000000 0.000000 0.000000 1.199849 2.030905 1.170704 -2.660340 -0.323520 -5.017211 -0.039386 -2.902064 5.627006 -0.015785 0.027162 -0.084316 -0.131492 -1.764770 4.464395 3.264171 0.151883 -12.951544 0.000000 0.000000 0.000000 1.544750 -0.932487 1.931934 5.162223 5.619986 -0.350033 1.829804 -9.917336 -39.531222 -7.432240 -19.546891 -4.654622 0.000000 0.000000 0.000000 -2.976357 0.267290 1.161464 12.892622 -11.194757 -2.048358 13.974824 -5.094733 -47.956548 -1.259869 30.164035 -4.994006 0.000000 0.000000 0.000000 
5.661732 81.864784 -5.888345 -179.914013 -1.281170 179.723505 -4.891732 -0.028885 13.044056 5.532381 -4.414098 -19.663874 1.649301 3.901725 25.739616 -0.379191 -6.367495 -9.698834 0.000000 0.000000 0.000000 -1.032848 -2.163406 13.379909 -0.971801 -11.310763 -11.953287 -1.269182 3.294936 20.307843 9.281290 9.013209 -8.336668 0.000000 0.000000 0.000000 1.198197 2.063579 1.159243 -2.611711 -0.356861 -5.082591 0.023385 -2.890254 5.553108 0.010769 0.035701 -0.033300 -0.144881 -1.822678 4.406593 3.263050 0.196195 -12.655960 0.000000 0.000000 0.000000 1.517291 -0.891452 1.754433 5.067793 5.608824 -0.316951 1.970733 -9.940831 -39.275002 -7.350371 -19.605672 -4.454556 0.000000 0.000000 0.000000 -2.996377 0.292184 1.036851 12.927305 -10.927141 -1.982849 14.090962 -5.408390 -48.284591 -1.141260 29.963493 -4.890064 0.000000 0.000000 0.000000 
5.721372 81.862671 -5.977521 -179.946484 -1.513449 179.755416 -4.971122 -0.004446 13.115602 5.697049 -4.526875 -19.780925 1.661743 3.896592 25.841683 -0.401218 -6.487732 -9.707645 0.000000 0.000000 0.000000 -1.074162 -2.193228 13.483137 -0.910334 -11.430057 -12.045103 -1.072747 3.642323 20.283445 9.197394 8.704768 -8.327039 0.000000 0.000000 0.000000 1.140586 2.098174 1.164402 -2.581679 -0.374208 -5.067027 0.041354 -2.855995 5.498147 -0.001888 0.045426 -0.005103 -0.090337 -1.768588 4.236795 3.268479 0.023227 -12.615762 0.000000 0.000000 0.000000 1.541207 -0.894471 1.643866 5.043967 5.537567 -0.219204 1.921103 -9.806833 -38.990439 -7.187831 -19.799065 -4.261345 0.000000 0.000000 0.000000 -2.966577 0.349884 0.874412 13.034991 -10.682836 -1.785181 14.175275 -5.798539 -48.428725 -1.058153 29.798643 -4.807461 0.000000 0.000000 0.000000 
5.778996 81.855553 -6.032339 179.970881 -1.669080 179.781794 -5.096169 -0.022771 13.157427 5.798390 -4.584732 -19.893869 1.705919 3.889252 26.023612 -0.425698 -6.581880 -9.750812 0.000000 0.000000 0.000000 -1.220777 -2.219344 13.552677 -0.763889 -11.291143 -12.161312 -1.077175 3.273698 20.347998 9.282505 8.710278 -8.286748 0.000000 0.000000 0.000000 1.078658 2.041001 1.151941 -2.526971 -0.441766 -5.021492 0.041504 -2.879349 5.398970 0.017545 0.033791 -0.030123 -0.072590 -1.723835 4.226800 3.244139 -0.092633 -12.437507 0.000000 0.000000 0.000000 1.557277 -0.813103 1.602250 5.064359 5.435330 -0.197633 1.615868 -9.463495 -38.657884 -7.036037 -20.120062 -4.093125 0.000000 0.000000 0.000000 -2.916073 0.376163 0.924781 12.886548 -10.320580 -1.619500 14.305170 -5.917762 -48.637439 -0.986404 29.649503 -4.674917 0.000000 0.000000 0.000000 
5.834866 81.846222 -6.064560 179.967425 -1.730293 179.812858 -5.118735 -0.091752 13.141722 5.853876 -4.564080 -20.010776 1.801056 3.899659 26.260587 -0.487014 -6.643251 -9.755191 0.000000 0.000000 0.000000 -1.166865 -2.330494 13.551331 -0.834482 -11.136250 -12.280530 -1.032869 3.302560 20.499749 9.292909 8.506512 -8.309075 0.000000 0.000000 0.000000 1.069386 1.975100 1.046643 -2.387055 -0.344770 -4.846047 0.034689 -2.801962 5.374852 0.015631 0.030716 -0.023756 -0.077354 -1.670218 4.123692 3.159408 -0.027904 -12.310809 0.000000 0.000000 0.000000 1.512738 -0.813151 1.562197 5.191545 5.207512 -0.182226 1.073232 -9.261088 -38.362888 -6.736756 -20.581716 -3.948515 0.000000 0.000000 0.000000 -2.957832 0.404553 0.724381 12.791443 -9.994441 -1.350476 14.440275 -6.278083 -48.677652 -1.025566 29.543997 -4.655573 0.000000 0.000000 0.000000 
5.885880 81.834282 -6.077504 179.981946 -1.744116 179.868633 -5.130395 -0.315930 13.094713 5.855218 -4.446084 -20.167834 1.911885 3.980572 26.522915 -0.617757 -6.706810 -9.751330 0.000000 0.000000 0.000000 -1.066370 -2.502208 13.519822 -0.892198 -10.834081 -12.433960 -1.099925 3.158069 20.743493 9.417912 8.386239 -8.323569 0.000000 0.000000 0.000000 1.074403 1.751304 1.107438 -2.186529 -0.329347 -4.825235 0.028369 -2.840354 5.290386 0.042943 -0.012818 -0.023332 -0.157165 -1.681427 4.099733 3.025457 -0.518693 -12.264892 0.000000 0.000000 0.000000 1.452642 -0.665617 1.546049 5.396722 5.044701 -0.094581 0.023995 -8.714672 -37.926340 -6.416176 -21.313035 -3.701256 0.000000 0.000000 0.000000 -2.993311 0.496666 0.797476 12.608802 -9.525572 -0.985883 14.643075 -6.450552 -48.754577 -1.101063 29.560806 -4.669192 0.000000 0.000000 0.000000 
5.960407 81.812279 -6.075211 179.998666 -1.633067 179.904136 -5.122819 -0.525524 13.101842 5.823713 -4.231900 -20.324833 2.045951 4.097980 26.839450 -0.807814 -6.756812 -9.748685 0.000000 0.000000 0.000000 -1.072829 -2.687242 13.526368 -0.841033 -10.359169 -12.611033 -1.219120 3.162621 21.036704 9.408184 8.208572 -8.290849 0.000000 0.000000 0.000000 1.096971 1.612999 1.061304 -1.992528 -0.198690 -4.736191 -0.014733 -2.792200 5.241274 0.028241 0.006300 -0.006964 -0.206556 -1.661773 3.997042 2.835018 -0.634100 -12.192474 0.000000 0.000000 0.000000 1.386893 -0.695920 1.507257 5.760290 4.673860 -0.058906 -1.560420 -7.949077 -37.192320 -5.938189 -22.426924 -3.361611 0.000000 0.000000 0.000000 -3.018863 0.459956 0.748988 12.376681 -9.238522 -1.019849 14.975017 -6.685165 -48.790872 -0.908498 29.600544 -4.339071 0.000000 0.000000 0.000000 
6.084663 81.788696 -6.039537 179.992669 -1.600121 179.938711 -5.171913 -0.699684 13.132943 5.887389 -3.879977 -20.561533 2.067326 3.847440 27.241976 -0.915295 -6.642041 -9.806695 0.000000 0.000000 0.000000 -1.076843 -2.774973 13.532935 -0.741252 -9.865710 -12.874985 -1.310985 3.004005 21.336884 9.369479 8.013845 -8.294221 0.000000 0.000000 0.000000 1.105673 1.503023 1.066895 -1.795681 -0.126161 -4.633877 -0.055885 -2.807708 5.205533 0.028124 0.001911 -0.004802 -0.246625 -1.671007 3.972166 2.599181 -1.011704 -12.083764 0.000000 0.000000 0.000000 1.351609 -0.742601 1.506662 6.255034 4.406449 0.016693 -3.810262 -6.625872 -36.146512 -5.346860 -24.043087 -2.986835 0.000000 0.000000 0.000000 -3.068843 0.460567 0.696366 12.252511 -8.885435 -0.301565 15.718345 -6.784463 -48.557741 -1.394375 29.949007 -4.790430 0.000000 0.000000 0.000000 
6.246486 81.766754 -5.953041 179.892074 -1.552797 179.921922 -5.230375 -0.887669 13.180494 5.910377 -3.625257 -20.806361 2.286894 4.045178 27.542769 -1.300337 -6.794516 -9.763940 0.000000 0.000000 0.000000 -1.178657 -2.715969 13.585590 -0.555338 -9.355396 -13.190974 -1.435015 2.698752 21.646087 9.331590 7.826254 -8.309361 0.000000 0.000000 0.000000 1.037012 1.451925 1.137899 -1.643414 -0.131162 -4.493945 -0.123026 -2.888843 5.206090 -0.007605 0.109062 -0.003369 -0.227985 -1.664745 3.946547 2.326781 -1.213368 -11.956904 0.000000 0.000000 0.000000 1.377164 -0.798795 1.501465 6.850788 4.216712 0.211495 -6.794205 -4.754145 -34.589287 -4.593175 -26.315015 -2.626241 0.000000 0.000000 0.000000 -3.004635 0.420092 0.670088 12.207166 -8.637885 -0.021729 16.789039 -6.874058 -48.212499 -1.582820 30.604759 -4.958764 0.000000 0.000000 0.000000 
6.448813 81.753082 -5.803493 179.903768 -1.296447 179.901828 -5.211372 -0.666581 13.260201 6.138002 -3.698974 -21.235570 2.388064 4.218645 27.887693 -1.640407 -6.857448 -9.711053 0.000000 0.000000 0.000000 -1.165103 -2.380491 13.644304 -0.312640 -8.820516 -13.523372 -1.583139 2.395627 22.054189 9.133737 7.584368 -8.371292 0.000000 0.000000 0.000000 1.017600 1.677842 1.246104 -1.443454 -0.031671 -4.341676 -0.149526 -2.842231 5.219511 -0.015239 0.022900 0.013200 -0.238397 -1.695279 3.895469 2.048704 -1.619366 -11.800953 0.000000 0.000000 0.000000 1.401785 -0.914747 1.479002 7.496386 4.085940 0.216736 -10.456813 -2.443851 -32.765954 -3.865300 -29.475791 -1.893793 0.000000 0.000000 0.000000 -2.979602 0.285717 0.579158 12.217592 -8.591482 0.427144 18.367922 -6.761436 -47.566759 -1.951312 31.796761 -5.282980 0.000000 0.000000 0.000000 
